/* XPM */
static char *b30c9d354017463a932e559d14f88fd4mQckhspZnSFeKCyi[] = {
/* columns rows colors chars-per-pixel */
"20 20 2 1 ",
"  c None",
". c white",
/* pixels */
"                    ",
"                    ",
"                .   ",
"    .        .   .  ",
"   .        .    .  ",
"   .        .    .  ",
"   .             .  ",
"                    ",
"         .          ",
"          .         ",
"          .         ",
"          .     .   ",
"   .           .    ",
"  .            .    ",
"  .         .  .    ",
"  . .        .      ",
"     .       .      ",
"     .              ",
"                    ",
"                    "
};
