/* XPM */
static char *_0b106f381b34836a95739e9f324ffeeM3hH4jVzVmMRtIXP[] = {
/* columns rows colors chars-per-pixel */
"20 20 8 1 ",
"  c None",
". c #EAE178",
"X c #5C4E92",
"o c #766DAA",
"O c #E8B5AC",
"+ c #DDD5DE",
"@ c #F3D8C5",
"# c #F3F2C0",
/* pixels */
"                    ",
"                    ",
"                    ",
"     XXX    XXX     ",
"    X###X  X###X    ",
"    XOO#XXXX#OOX    ",
"    XOO#++++#OOX    ",
"    X###++++###X    ",
"    X###++++###X    ",
"   XX##########XX   ",
"    X#X######X#X    ",
"   XX##########XX   ",
"    X@@######@@X    ",
"     XXooooooXX     ",
"    X+#oo.#oo#+X    ",
"    X+###..###+X    ",
"     XX######XX     ",
"      X++XX++X      ",
"       XX  XX       ",
"                    "
};
