/* XPM */
static char *_91323627f4844b8f68bdcb394a6a1affDj9BWljtg7YnpRf[] = {
/* columns rows colors chars-per-pixel */
"20 20 3 1 ",
"  c None",
". c black",
"X c white",
/* pixels */
"                    ",
"                    ",
"    XXXXXXXXXXXX    ",
"    XXXXXXXXXXXX    ",
"  XXXXXXXXXXXX..XX  ",
"  XXXXXXXXXXXX..XX  ",
"  XXXXXXXXXXXX..XX  ",
"  XXXXXXXXXXXX..XX  ",
"  ................  ",
"  ................  ",
"  XX..XXXX..XXXXXX  ",
"  XX..XXXX..XXXXXX  ",
"  XX........XX..XX  ",
"  XX........XX..XX  ",
"  XX........XX..XX  ",
"  XX........XX..XX  ",
"  XXXXXXXXXXXX..XX  ",
"  XXXXXXXXXXXX..XX  ",
"                    ",
"                    "
};
