/* XPM */
static char *_4bb909c6d444338bf2e422eec2c012axn2cB8ZYRopP2UK4[] = {
/* columns rows colors chars-per-pixel */
"19 19 2 1 ",
"  c None",
". c #E4E4E4",
/* pixels */
"                   ",
"                   ",
"  ....  .......... ",
"  ....  .......... ",
"                   ",
"                   ",
"  .........  ..... ",
"  .........  ..... ",
"                   ",
"                   ",
"   ..............  ",
"   ..............  ",
"                   ",
"                   ",
"  .......  ....... ",
"  .......  ....... ",
"                   ",
"                   ",
"                   "
};
