/* XPM */
static char * bg_xpm[] = {
"20 20 4 1",
" 	c None",
".	c #51847D",
"+	c #3A7585",
"@	c #245D6C",
"                    ",
"                    ",
"                .   ",
"    .        .   .  ",
"   .        .    +  ",
"   +        +    +  ",
"   @             @  ",
"                    ",
"         .          ",
"          .         ",
"          +         ",
"          @     .   ",
"   .           .    ",
"  .            +    ",
"  +         .  @    ",
"  @ .        .      ",
"     .       +      ",
"     +              ",
"                    ",
"                    "};
