/* XPM */
static char * character_xpm[] = {
"20 20 9 1",
" 	c None",
".	c #726055",
"+	c #B4A195",
"@	c #88796E",
"#	c #000000",
"$	c #D7A621",
"%	c #46352C",
"&	c #7F4019",
"*	c #966E03",
"                    ",
"                    ",
"         .......    ",
"        ...+++++.   ",
"       ...@++++++.  ",
"       ...++++++++  ",
"      ++@.+#++++#+  ",
"      +++.+++++++++ ",
"      +++.+++++++++ ",
"        ...++++++++ ",
"$$     ....%%%%     ",
"$     ......@@%%    ",
"$     ...@..++%%    ",
"%    ...@+..++%%    ",
"%%.....@++..  %%    ",
"     ..  %%..  %%   ",
"     $$ &**.$  %*   ",
"     $$ **+$$ +**   ",
"                    ",
"                    "};
