/* XPM */
static char *fc77c2a6a3144e72e8bad50c308ea9f83Jb93IRv6TSdPFAg[] = {
/* columns rows colors chars-per-pixel */
"20 20 3 1 ",
"  c None",
". c black",
"X c #175EFE",
/* pixels */
"                    ",
"                    ",
"                    ",
" XXXXXXXX  XXXXXX   ",
" XXXXXXXX  XXXXXX   ",
"   XXXXXXXXXXXXXX   ",
"   XXXXXXXXXXXXXX   ",
"     XXXX..XX..XX   ",
"     XXXX..XX..XX   ",
"     XXXX..XX..XX   ",
"     XXXX..XX..XX   ",
"     XXXXXXXXXXXX   ",
"     XXXXXXXXXXXX   ",
"       XX  XXXX     ",
"       XX  XXXX     ",
"         XXXX       ",
"         XXXX       ",
"                    ",
"                    ",
"                    "
};
