/* XPM */
static char *_539b894386943f6a1bfa213a026afccTb2h3JWNfKyKxBq6[] = {
/* columns rows colors chars-per-pixel */
"20 20 2 1 ",
"  c None",
". c #E4E4E4",
/* pixels */
"                    ",
"                    ",
"  ................  ",
"  .              .  ",
"  . ...          .  ",
"  . ...          .  ",
"  . ... ...      .  ",
"  . ... ...      .  ",
"  . ... ... ...  .  ",
"  . ... ... ...  .  ",
"  . ... ... ...  .  ",
"  . ... ... ...  .  ",
"  . ... ... ...  .  ",
"  . ... ... ...  .  ",
"  . ... ... ...  .  ",
"  . ... ... ...  .  ",
"  . ... ... ...  .  ",
"  ................  ",
"                    ",
"                    "
};
