/* XPM */
static char *ce72ec487d3d41b4e918ffdcbbfa89bc31WLKBNcmK65X6jm[] = {
/* columns rows colors chars-per-pixel */
"20 20 3 1 ",
"  c None",
". c black",
"X c white",
/* pixels */
"                    ",
"                    ",
"      XXXXXXXX      ",
"      XXXXXXXX      ",
"    XXXX......XX    ",
"    XXXX......XX    ",
"  XXXX....XXXX..XX  ",
"  XXXX....XXXX..XX  ",
"  XXXX..XX  XXXXXX  ",
"  XXXX..XX  XXXXXX  ",
"  XXXX..XX  XXXXXX  ",
"  XXXX..XX  XXXXXX  ",
"  XXXX....XXXX..XX  ",
"  XXXX....XXXX..XX  ",
"    XXXX......XX    ",
"    XXXX......XX    ",
"      XXXXXXXX      ",
"      XXXXXXXX      ",
"                    ",
"                    "
};
